<?xml version="1.0" encoding="utf-8"?>
<!-- Generator: Adobe Illustrator 17.0.0, SVG Export Plug-In . SVG Version: 6.00 Build 0)  -->
<!DOCTYPE svg PUBLIC "-//W3C//DTD SVG 1.1//EN" "http://www.w3.org/Graphics/SVG/1.1/DTD/svg11.dtd">
<svg version="1.1" id="Laag_1" xmlns="http://www.w3.org/2000/svg" xmlns:xlink="http://www.w3.org/1999/xlink" x="0px" y="0px"
	 width="309.755px" height="290.597px" viewBox="0 0 309.755 290.597" enable-background="new 0 0 309.755 290.597"
	 xml:space="preserve">
<g>
	<path opacity="0.15" fill="#50C3EF" d="M-837.294,243.873c0,3.183-2.58,5.762-5.763,5.762h-196.28c-3.182,0-5.762-2.58-5.762-5.762
		V47.593c0-3.183,2.58-5.762,5.762-5.762h196.28c3.183,0,5.763,2.58,5.763,5.762V243.873z"/>
	<path fill="#EFB873" d="M-849.089,235.764c0,3.183-2.58,5.762-5.763,5.762h-196.28c-3.182,0-5.762-2.58-5.762-5.762V39.484
		c0-3.183,2.58-5.762,5.762-5.762h196.28c3.183,0,5.763,2.58,5.763,5.762V235.764z"/>
	<text transform="matrix(1 0 0 1 -1031.6257 90.0771)"><tspan x="0" y="0" fill="#333333" font-family="'NotoSans-Bold'" font-size="44.5468" letter-spacing="4">STICK </tspan><tspan x="0" y="53.456" fill="#333333" font-family="'NotoSans-Bold'" font-size="44.5468" letter-spacing="4">TO </tspan><tspan x="0" y="106.912" fill="#333333" font-family="'NotoSans-Bold'" font-size="44.5468" letter-spacing="4">IT</tspan></text>
</g>
<g>
	<path opacity="0.15" fill="#E53112" d="M-553.826,243.873c0,3.183-2.58,5.762-5.763,5.762h-196.28c-3.183,0-5.763-2.58-5.763-5.762
		V47.593c0-3.183,2.58-5.762,5.763-5.762h196.28c3.183,0,5.763,2.58,5.763,5.762V243.873z"/>
	<path fill="#89CED9" d="M-565.621,235.764c0,3.183-2.58,5.762-5.763,5.762h-196.28c-3.183,0-5.763-2.58-5.763-5.762V39.484
		c0-3.183,2.58-5.762,5.763-5.762h196.28c3.183,0,5.763,2.58,5.763,5.762V235.764z"/>
	<text transform="matrix(1 0 0 1 -748.1576 90.0771)"><tspan x="0" y="0" fill="#333333" font-family="'NotoSans-Bold'" font-size="44.5468" letter-spacing="4">STICK </tspan><tspan x="0" y="53.456" fill="#333333" font-family="'NotoSans-Bold'" font-size="44.5468" letter-spacing="4">TO </tspan><tspan x="0" y="106.912" fill="#333333" font-family="'NotoSans-Bold'" font-size="44.5468" letter-spacing="4">IT</tspan></text>
</g>
<g>
	<path opacity="0.15" fill="#CE4B95" d="M-837.294,515.873c0,3.182-2.58,5.762-5.763,5.762h-196.28c-3.182,0-5.762-2.58-5.762-5.762
		v-196.28c0-3.183,2.58-5.762,5.762-5.762h196.28c3.183,0,5.763,2.58,5.763,5.762V515.873z"/>
	<path fill="#EF7E9B" d="M-849.089,507.764c0,3.183-2.58,5.762-5.763,5.762h-196.28c-3.182,0-5.762-2.58-5.762-5.762v-196.28
		c0-3.183,2.58-5.762,5.762-5.762h196.28c3.183,0,5.763,2.58,5.763,5.762V507.764z"/>
	<text transform="matrix(1 0 0 1 -1031.6257 362.0771)"><tspan x="0" y="0" fill="#333333" font-family="'NotoSans-Bold'" font-size="44.5468" letter-spacing="4">STICK </tspan><tspan x="0" y="53.456" fill="#333333" font-family="'NotoSans-Bold'" font-size="44.5468" letter-spacing="4">TO </tspan><tspan x="0" y="106.912" fill="#333333" font-family="'NotoSans-Bold'" font-size="44.5468" letter-spacing="4">IT</tspan></text>
</g>
<g>
	<path opacity="0.15" fill="#A7CE83" d="M-553.826,515.873c0,3.182-2.58,5.762-5.763,5.762h-196.28c-3.183,0-5.763-2.58-5.763-5.762
		v-196.28c0-3.183,2.58-5.762,5.763-5.762h196.28c3.183,0,5.763,2.58,5.763,5.762V515.873z"/>
	<path fill="#89C58E" d="M-565.621,507.764c0,3.183-2.58,5.762-5.763,5.762h-196.28c-3.183,0-5.763-2.58-5.763-5.762v-196.28
		c0-3.183,2.58-5.762,5.763-5.762h196.28c3.183,0,5.763,2.58,5.763,5.762V507.764z"/>
	<text transform="matrix(1 0 0 1 -748.1576 362.0771)"><tspan x="0" y="0" fill="#333333" font-family="'NotoSans-Bold'" font-size="44.5468" letter-spacing="4">STICK </tspan><tspan x="0" y="53.456" fill="#333333" font-family="'NotoSans-Bold'" font-size="44.5468" letter-spacing="4">TO </tspan><tspan x="0" y="106.912" fill="#333333" font-family="'NotoSans-Bold'" font-size="44.5468" letter-spacing="4">IT</tspan></text>
</g>
<g>
	<path fill="#ADDCE6" d="M235.909,227.507l-165.94,29.671c-3.133,0.56-6.127-1.525-6.687-4.658L28.735,59.304
		c-0.56-3.133,1.525-6.127,4.658-6.687L226.608,18.07c3.133-0.56,6.127,1.525,6.687,4.658l29.573,165.393L235.909,227.507z"/>
	<g>
		<path fill="#EA5E86" d="M83.377,91.958c0.505,2.826-0.114,5.235-1.857,7.226c-1.743,1.991-4.428,3.311-8.053,3.959
			c-3.341,0.597-6.408,0.497-9.202-0.299l-1.103-6.167c2.281,0.564,4.188,0.908,5.72,1.032c1.532,0.124,2.905,0.077,4.118-0.14
			c1.456-0.26,2.523-0.738,3.202-1.434c0.678-0.696,0.919-1.593,0.723-2.693c-0.11-0.613-0.378-1.129-0.807-1.546
			c-0.428-0.417-1.013-0.787-1.756-1.111c-0.742-0.324-2.221-0.788-4.437-1.394c-2.074-0.557-3.662-1.164-4.767-1.821
			c-1.105-0.657-2.04-1.484-2.808-2.481c-0.767-0.997-1.283-2.23-1.546-3.701c-0.495-2.77,0.054-5.114,1.648-7.034
			c1.593-1.92,4.046-3.176,7.358-3.768c1.628-0.291,3.214-0.376,4.761-0.255c1.546,0.121,3.188,0.388,4.926,0.798l-1.218,5.543
			c-1.793-0.386-3.259-0.618-4.4-0.693c-1.141-0.076-2.24-0.02-3.295,0.169c-1.256,0.225-2.167,0.69-2.734,1.395
			c-0.566,0.705-0.765,1.529-0.597,2.471c0.105,0.585,0.332,1.072,0.68,1.458c0.349,0.387,0.856,0.731,1.522,1.031
			c0.665,0.301,2.198,0.782,4.599,1.443c3.176,0.875,5.433,1.919,6.769,3.131C82.161,88.291,83.012,89.917,83.377,91.958z"/>
		<path fill="#EA5E86" d="M107.067,96.694l-6.638,1.187l-4.61-25.78l-8.5,1.52l-0.988-5.524l23.639-4.227l0.988,5.524l-8.501,1.52
			L107.067,96.694z"/>
		<path fill="#EA5E86" d="M136.483,91.434l-14.239,2.546l-0.674-3.768l3.497-2.437l-3.622-20.255l-4.125-1.074l-0.674-3.768
			l14.239-2.546l0.674,3.768l-3.498,2.437l3.622,20.255l4.126,1.074L136.483,91.434z"/>
		<path fill="#EA5E86" d="M154.827,61.086c-2.498,0.447-4.265,1.731-5.299,3.853c-1.035,2.123-1.253,4.861-0.653,8.215
			c1.248,6.98,4.492,10.002,9.731,9.065c2.198-0.393,4.762-1.418,7.692-3.077l0.995,5.567c-2.378,1.53-5.152,2.578-8.32,3.145
			c-4.554,0.814-8.284,0.056-11.19-2.275c-2.906-2.331-4.821-6.08-5.745-11.247c-0.582-3.255-0.499-6.211,0.248-8.872
			c0.747-2.66,2.114-4.841,4.1-6.544c1.986-1.703,4.471-2.821,7.455-3.355c3.041-0.544,6.226-0.354,9.559,0.567l-1.177,5.779
			c-1.269-0.347-2.534-0.622-3.793-0.824C157.169,60.881,155.969,60.882,154.827,61.086z"/>
		<path fill="#EA5E86" d="M203.728,79.41l-7.537,1.348l-10.559-11.723l-2.445,2.515l1.998,11.177l-6.637,1.187l-5.597-31.304
			l6.637-1.187l2.561,14.324l1.954-4.15l6.576-12.157l7.366-1.317l-8.443,15.806L203.728,79.41z"/>
		<path fill="#EA5E86" d="M87.938,154.418l-6.638,1.187l-4.61-25.78l-8.5,1.52l-0.988-5.524l23.639-4.227l0.988,5.524l-8.501,1.52
			L87.938,154.418z"/>
		<path fill="#EA5E86" d="M130.82,130.554c0.927,5.182,0.354,9.394-1.718,12.637c-2.072,3.243-5.506,5.293-10.302,6.151
			c-4.796,0.858-8.728,0.124-11.795-2.2s-5.066-6.091-5.998-11.301c-0.932-5.21-0.355-9.419,1.73-12.628
			c2.085-3.208,5.533-5.243,10.344-6.103c4.809-0.86,8.737-0.133,11.781,2.18C127.905,121.603,129.891,125.358,130.82,130.554z
			 M107.974,134.639c0.625,3.498,1.76,6.013,3.404,7.545c1.644,1.533,3.786,2.063,6.427,1.591c5.296-0.947,7.314-4.939,6.056-11.977
			c-1.261-7.051-4.524-10.107-9.791-9.165c-2.642,0.472-4.474,1.717-5.498,3.734C107.548,128.385,107.349,131.141,107.974,134.639z"
			/>
		<path fill="#EA5E86" d="M96.983,207.104l-14.239,2.546l-0.674-3.768l3.497-2.437l-3.622-20.255l-4.125-1.074l-0.674-3.768
			l14.239-2.546l0.674,3.768l-3.498,2.437l3.622,20.255l4.126,1.074L96.983,207.104z"/>
		<path fill="#EA5E86" d="M118.798,203.204l-6.638,1.187l-4.61-25.78l-8.501,1.52l-0.988-5.524l23.639-4.227l0.988,5.524l-8.5,1.52
			L118.798,203.204z"/>
	</g>
	<polygon fill="#64A7AA" points="236.016,227.488 230.5,196.639 230.034,194.034 232.818,193.533 262.868,188.121 	"/>
</g>
<g opacity="0.8">
	<path opacity="0.15" fill="#E53112" d="M555.35,249.635H391.698c-3.183,0-5.762-2.58-5.762-5.762V47.593
		c0-3.183,2.58-5.762,5.762-5.762h196.28c3.182,0,5.762,2.58,5.762,5.762v160.532L555.35,249.635z"/>
	<path fill="#89CED9" d="M548.475,241.526H379.904c-3.183,0-5.762-2.58-5.762-5.762V39.484c0-3.183,2.58-5.762,5.762-5.762h196.28
		c3.182,0,5.762,2.58,5.762,5.762V207.5L548.475,241.526z"/>
	<g>
		<path fill="#EA5E86" d="M422.183,81.246c0,2.871-1.033,5.133-3.1,6.787c-2.066,1.653-4.941,2.479-8.624,2.479
			c-3.394,0-6.396-0.638-9.006-1.914v-6.265c2.146,0.957,3.963,1.631,5.449,2.023s2.846,0.587,4.078,0.587
			c1.479,0,2.613-0.283,3.404-0.848c0.79-0.566,1.186-1.407,1.186-2.523c0-0.623-0.174-1.178-0.522-1.664
			c-0.348-0.485-0.858-0.953-1.533-1.403c-0.674-0.449-2.048-1.167-4.122-2.153c-1.943-0.914-3.4-1.791-4.372-2.632
			c-0.972-0.841-1.747-1.82-2.327-2.937c-0.58-1.116-0.87-2.421-0.87-3.915c0-2.813,0.953-5.025,2.86-6.634
			c1.906-1.61,4.542-2.415,7.906-2.415c1.653,0,3.23,0.196,4.731,0.587s3.07,0.943,4.709,1.653l-2.175,5.242
			c-1.697-0.696-3.1-1.182-4.209-1.457s-2.201-0.414-3.273-0.414c-1.276,0-2.255,0.297-2.937,0.892s-1.022,1.37-1.022,2.327
			c0,0.595,0.138,1.113,0.413,1.555c0.275,0.442,0.714,0.87,1.316,1.283c0.602,0.414,2.026,1.157,4.273,2.23
			c2.973,1.421,5.011,2.846,6.112,4.274S422.183,79.172,422.183,81.246z"/>
		<path fill="#EA5E86" d="M444.669,90.077h-6.743V63.889h-8.635v-5.612h24.014v5.612h-8.636V90.077z"/>
		<path fill="#EA5E86" d="M474.552,90.077h-14.465v-3.828l3.871-1.784V63.889l-3.871-1.784v-3.828h14.465v3.828l-3.872,1.784v20.577
			l3.872,1.784V90.077z"/>
		<path fill="#EA5E86" d="M497.951,63.432c-2.538,0-4.503,0.954-5.895,2.86c-1.393,1.907-2.089,4.564-2.089,7.972
			c0,7.091,2.661,10.636,7.983,10.636c2.232,0,4.938-0.558,8.113-1.675v5.655c-2.61,1.087-5.525,1.631-8.744,1.631
			c-4.626,0-8.164-1.403-10.615-4.209c-2.45-2.806-3.676-6.833-3.676-12.083c0-3.306,0.602-6.202,1.806-8.689
			c1.203-2.487,2.933-4.394,5.188-5.721c2.255-1.327,4.897-1.99,7.929-1.99c3.089,0,6.191,0.747,9.31,2.24l-2.176,5.481
			c-1.188-0.565-2.385-1.058-3.589-1.479C500.293,63.642,499.112,63.432,497.951,63.432z"/>
		<path fill="#EA5E86" d="M542.863,90.077h-7.656l-8.331-13.399l-2.85,2.045v11.354h-6.742v-31.8h6.742v14.551l2.654-3.741
			l8.613-10.81h7.482L531.684,72.35L542.863,90.077z"/>
		<path fill="#EA5E86" d="M415.679,143.533h-6.743v-26.188h-8.635v-5.612h24.014v5.612h-8.636V143.533z"/>
		<path fill="#EA5E86" d="M462.092,127.589c0,5.264-1.305,9.31-3.915,12.137s-6.352,4.242-11.224,4.242s-8.613-1.414-11.224-4.242
			s-3.915-6.888-3.915-12.181c0-5.292,1.309-9.334,3.926-12.126c2.617-2.791,6.369-4.187,11.257-4.187
			c4.886,0,8.624,1.407,11.213,4.22C460.798,118.266,462.092,122.312,462.092,127.589z M438.884,127.589
			c0,3.553,0.674,6.229,2.022,8.026c1.349,1.798,3.364,2.697,6.047,2.697c5.38,0,8.069-3.575,8.069-10.724
			c0-7.163-2.675-10.745-8.025-10.745c-2.684,0-4.706,0.903-6.069,2.708C439.565,121.358,438.884,124.037,438.884,127.589z"/>
		<path fill="#EA5E86" d="M415.31,196.989h-14.465v-3.828l3.871-1.784v-20.577l-3.871-1.784v-3.828h14.465v3.828l-3.872,1.784
			v20.577l3.872,1.784V196.989z"/>
		<path fill="#EA5E86" d="M437.47,196.989h-6.743v-26.188h-8.636v-5.612h24.014v5.612h-8.635V196.989z"/>
	</g>
	<polygon fill="#5F8A8E" points="548.584,241.526 548.584,210.188 548.584,207.542 551.413,207.538 581.946,207.5 	"/>
</g>
<g opacity="0.8">
	<path opacity="0.15" fill="#E53112" d="M885.104,249.635H721.453c-3.183,0-5.763-2.58-5.763-5.762V47.593
		c0-3.183,2.58-5.762,5.763-5.762h196.28c3.183,0,5.763,2.58,5.763,5.762v160.532L885.104,249.635z"/>
	<path fill="#89CED9" d="M878.23,241.526H709.658c-3.183,0-5.763-2.58-5.763-5.762V39.484c0-3.183,2.58-5.762,5.763-5.762h196.28
		c3.183,0,5.763,2.58,5.763,5.762V207.5L878.23,241.526z"/>
	<g>
		<path fill="#EA5E86" d="M751.938,81.246c0,2.871-1.033,5.133-3.1,6.787c-2.066,1.653-4.941,2.479-8.624,2.479
			c-3.394,0-6.396-0.638-9.006-1.914v-6.265c2.146,0.957,3.963,1.631,5.449,2.023s2.846,0.587,4.078,0.587
			c1.479,0,2.613-0.283,3.404-0.848c0.79-0.566,1.186-1.407,1.186-2.523c0-0.623-0.174-1.178-0.522-1.664
			c-0.348-0.485-0.858-0.953-1.533-1.403c-0.674-0.449-2.048-1.167-4.122-2.153c-1.943-0.914-3.4-1.791-4.372-2.632
			c-0.972-0.841-1.747-1.82-2.327-2.937c-0.58-1.116-0.87-2.421-0.87-3.915c0-2.813,0.953-5.025,2.86-6.634
			c1.906-1.61,4.542-2.415,7.906-2.415c1.653,0,3.23,0.196,4.731,0.587s3.07,0.943,4.709,1.653l-2.175,5.242
			c-1.697-0.696-3.1-1.182-4.209-1.457s-2.201-0.414-3.273-0.414c-1.276,0-2.255,0.297-2.937,0.892s-1.022,1.37-1.022,2.327
			c0,0.595,0.138,1.113,0.413,1.555c0.275,0.442,0.714,0.87,1.316,1.283c0.602,0.414,2.026,1.157,4.273,2.23
			c2.973,1.421,5.011,2.846,6.112,4.274S751.938,79.172,751.938,81.246z"/>
		<path fill="#EA5E86" d="M774.424,90.077h-6.743V63.889h-8.635v-5.612h24.014v5.612h-8.636V90.077z"/>
		<path fill="#EA5E86" d="M804.307,90.077h-14.465v-3.828l3.871-1.784V63.889l-3.871-1.784v-3.828h14.465v3.828l-3.872,1.784v20.577
			l3.872,1.784V90.077z"/>
		<path fill="#EA5E86" d="M827.706,63.432c-2.538,0-4.503,0.954-5.895,2.86c-1.393,1.907-2.089,4.564-2.089,7.972
			c0,7.091,2.661,10.636,7.983,10.636c2.232,0,4.938-0.558,8.113-1.675v5.655c-2.61,1.087-5.525,1.631-8.744,1.631
			c-4.626,0-8.164-1.403-10.615-4.209c-2.45-2.806-3.676-6.833-3.676-12.083c0-3.306,0.602-6.202,1.806-8.689
			c1.203-2.487,2.933-4.394,5.188-5.721c2.255-1.327,4.897-1.99,7.929-1.99c3.089,0,6.191,0.747,9.31,2.24l-2.176,5.481
			c-1.188-0.565-2.385-1.058-3.589-1.479C830.048,63.642,828.866,63.432,827.706,63.432z"/>
		<path fill="#EA5E86" d="M872.618,90.077h-7.656l-8.331-13.399l-2.85,2.045v11.354h-6.742v-31.8h6.742v14.551l2.654-3.741
			l8.613-10.81h7.482L861.439,72.35L872.618,90.077z"/>
		<path fill="#EA5E86" d="M745.434,143.533h-6.743v-26.188h-8.635v-5.612h24.014v5.612h-8.636V143.533z"/>
		<path fill="#EA5E86" d="M791.847,127.589c0,5.264-1.305,9.31-3.915,12.137s-6.352,4.242-11.224,4.242s-8.613-1.414-11.224-4.242
			s-3.915-6.888-3.915-12.181c0-5.292,1.309-9.334,3.926-12.126c2.617-2.791,6.369-4.187,11.257-4.187
			c4.886,0,8.624,1.407,11.213,4.22C790.553,118.266,791.847,122.312,791.847,127.589z M768.639,127.589
			c0,3.553,0.674,6.229,2.022,8.026c1.349,1.798,3.364,2.697,6.047,2.697c5.38,0,8.069-3.575,8.069-10.724
			c0-7.163-2.675-10.745-8.025-10.745c-2.684,0-4.706,0.903-6.069,2.708C769.319,121.358,768.639,124.037,768.639,127.589z"/>
		<path fill="#EA5E86" d="M745.065,196.989H730.6v-3.828l3.871-1.784v-20.577l-3.871-1.784v-3.828h14.465v3.828l-3.872,1.784v20.577
			l3.872,1.784V196.989z"/>
		<path fill="#EA5E86" d="M767.225,196.989h-6.743v-26.188h-8.636v-5.612h24.014v5.612h-8.635V196.989z"/>
	</g>
	<polygon fill="#5F8A8E" points="878.339,241.526 878.339,210.188 878.339,207.542 881.168,207.538 911.701,207.5 	"/>
</g>
<g>
	<path fill="none" stroke="#89CED9" stroke-width="3" stroke-linecap="round" stroke-linejoin="round" d="M1375.2,241.526V47.593
		c0-3.183,2.58-5.762,5.762-5.762h190.247"/>
	<path opacity="0.15" fill="none" stroke="#E53112" stroke-width="3" stroke-linecap="round" stroke-linejoin="round" d="
		M1375.2,241.526v2.347c0,3.182,2.58,5.762,5.762,5.762h163.651l38.391-41.51V47.593c0-3.183-2.58-5.762-5.762-5.762h-6.032"/>
	
		<line fill="none" stroke="#5F8A8E" stroke-width="3" stroke-linecap="round" stroke-linejoin="round" x1="1571.21" y1="207.5" x2="1537.848" y2="241.416"/>
	
		<line fill="none" stroke="#89CED9" stroke-width="3" stroke-linecap="round" stroke-linejoin="round" x1="1571.21" y1="41.831" x2="1571.21" y2="207.5"/>
	<polyline fill="none" stroke="#89CED9" stroke-width="3" stroke-linecap="round" stroke-linejoin="round" points="1375.2,241.526 
		1537.739,241.526 1537.848,241.416 	"/>
	<path fill="none" stroke="#89CED9" stroke-width="3" stroke-linecap="round" stroke-linejoin="round" d="M1571.21,41.831v-2.347
		c0-3.183-2.58-5.762-5.762-5.762h-196.28c-3.183,0-5.762,2.58-5.762,5.762v196.28c0,3.183,2.58,5.763,5.762,5.763h6.032"/>
	<path fill="none" stroke="#EA5E86" stroke-width="3" stroke-linecap="round" stroke-linejoin="round" d="M1411.447,81.246
		c0-2.074-0.552-3.825-1.653-5.253s-3.14-2.853-6.112-4.274c-2.247-1.073-3.672-1.816-4.273-2.23
		c-0.603-0.413-1.041-0.841-1.316-1.283c-0.275-0.442-0.413-0.96-0.413-1.555c0-0.957,0.341-1.732,1.022-2.327
		s1.66-0.892,2.937-0.892c1.072,0,2.164,0.138,3.273,0.414s2.512,0.761,4.209,1.457l2.175-5.242
		c-1.639-0.71-3.208-1.261-4.709-1.653s-3.078-0.587-4.731-0.587c-3.364,0-6,0.805-7.906,2.415c-1.907,1.609-2.86,3.821-2.86,6.634
		c0,1.494,0.29,2.799,0.87,3.915c0.58,1.117,1.355,2.096,2.327,2.937c0.972,0.841,2.429,1.718,4.372,2.632
		c2.074,0.986,3.448,1.704,4.122,2.153c0.675,0.45,1.186,0.917,1.533,1.403c0.349,0.486,0.522,1.041,0.522,1.664
		c0,1.117-0.396,1.958-1.186,2.523c-0.791,0.565-1.925,0.848-3.404,0.848c-1.232,0-2.592-0.196-4.078-0.587
		s-3.303-1.066-5.449-2.023v6.265c2.61,1.276,5.612,1.914,9.006,1.914c3.683,0,6.558-0.827,8.624-2.479
		C1410.414,86.379,1411.447,84.117,1411.447,81.246z"/>
	<polygon fill="none" stroke="#EA5E86" stroke-width="3" stroke-linecap="round" stroke-linejoin="round" points="1442.569,58.277 
		1418.555,58.277 1418.555,63.889 1427.19,63.889 1427.19,90.077 1433.933,90.077 1433.933,63.889 1442.569,63.889 	"/>
	<polygon fill="none" stroke="#EA5E86" stroke-width="3" stroke-linecap="round" stroke-linejoin="round" points="1463.816,90.077 
		1463.816,86.249 1459.944,84.465 1459.944,63.889 1463.816,62.105 1463.816,58.277 1449.351,58.277 1449.351,62.105 
		1453.222,63.889 1453.222,84.465 1449.351,86.249 1449.351,90.077 	"/>
	<path fill="none" stroke="#EA5E86" stroke-width="3" stroke-linecap="round" stroke-linejoin="round" d="M1472.294,74.22
		c0,5.25,1.226,9.277,3.676,12.083c2.451,2.806,5.989,4.209,10.615,4.209c3.219,0,6.134-0.544,8.744-1.631v-5.655
		c-3.176,1.117-5.881,1.675-8.113,1.675c-5.322,0-7.983-3.545-7.983-10.636c0-3.408,0.696-6.065,2.089-7.972
		c1.392-1.907,3.356-2.86,5.895-2.86c1.16,0,2.342,0.21,3.545,0.631c1.204,0.421,2.4,0.914,3.589,1.479l2.176-5.481
		c-3.118-1.493-6.221-2.24-9.31-2.24c-3.031,0-5.674,0.664-7.929,1.99c-2.255,1.327-3.984,3.234-5.188,5.721
		C1472.895,68.018,1472.294,70.914,1472.294,74.22z"/>
	<polygon fill="none" stroke="#EA5E86" stroke-width="3" stroke-linecap="round" stroke-linejoin="round" points="1532.128,90.077 
		1520.948,72.35 1532.041,58.277 1524.558,58.277 1515.945,69.087 1513.291,72.828 1513.291,58.277 1506.549,58.277 
		1506.549,90.077 1513.291,90.077 1513.291,78.723 1516.14,76.678 1524.471,90.077 	"/>
	<polygon fill="none" stroke="#EA5E86" stroke-width="3" stroke-linecap="round" stroke-linejoin="round" points="1389.565,117.345 
		1398.2,117.345 1398.2,143.533 1404.943,143.533 1404.943,117.345 1413.579,117.345 1413.579,111.733 1389.565,111.733 	"/>
	<path fill="none" stroke="#EA5E86" stroke-width="3" stroke-linecap="round" stroke-linejoin="round" d="M1436.218,143.968
		c4.872,0,8.613-1.414,11.224-4.242s3.915-6.873,3.915-12.137c0-5.278-1.294-9.324-3.882-12.137
		c-2.589-2.813-6.327-4.22-11.213-4.22c-4.888,0-8.64,1.396-11.257,4.187c-2.617,2.792-3.926,6.834-3.926,12.126
		c0,5.293,1.305,9.353,3.915,12.181S1431.345,143.968,1436.218,143.968z"/>
	<path fill="none" stroke="#EA5E86" stroke-width="3" stroke-linecap="round" stroke-linejoin="round" d="M1428.148,127.589
		c0,3.553,0.674,6.229,2.022,8.026c1.349,1.798,3.364,2.697,6.047,2.697c5.38,0,8.069-3.575,8.069-10.724
		c0-7.163-2.675-10.745-8.025-10.745c-2.684,0-4.706,0.903-6.069,2.708C1428.829,121.358,1428.148,124.037,1428.148,127.589z"/>
	<polygon fill="none" stroke="#EA5E86" stroke-width="3" stroke-linecap="round" stroke-linejoin="round" points="1390.109,196.989 
		1404.574,196.989 1404.574,193.161 1400.702,191.377 1400.702,170.801 1404.574,169.017 1404.574,165.189 1390.109,165.189 
		1390.109,169.017 1393.98,170.801 1393.98,191.377 1390.109,193.161 	"/>
	<polygon fill="none" stroke="#EA5E86" stroke-width="3" stroke-linecap="round" stroke-linejoin="round" points="1411.355,170.801 
		1419.991,170.801 1419.991,196.989 1426.734,196.989 1426.734,170.801 1435.369,170.801 1435.369,165.189 1411.355,165.189 	"/>
	<polyline fill="none" stroke="#5F8A8E" stroke-width="3" stroke-linecap="round" stroke-linejoin="round" points="1571.21,207.5 
		1540.677,207.538 1537.848,207.542 1537.848,210.188 1537.848,241.416 	"/>
	<polyline fill="none" stroke="#5F8A8E" stroke-width="3" stroke-linecap="round" stroke-linejoin="round" points="
		1537.848,241.416 1537.848,241.526 1571.21,207.5 	"/>
</g>
<g>
	<path opacity="0.15" fill="#E53112" d="M1214.859,249.635h-163.651c-3.183,0-5.763-2.58-5.763-5.762V47.593
		c0-3.183,2.58-5.762,5.763-5.762h196.28c3.183,0,5.763,2.58,5.763,5.762v160.532L1214.859,249.635z"/>
	<path fill="#89CED9" d="M1207.985,241.526h-168.571c-3.183,0-5.763-2.58-5.763-5.762V39.484c0-3.183,2.58-5.762,5.763-5.762h196.28
		c3.183,0,5.763,2.58,5.763,5.762V207.5L1207.985,241.526z"/>
	<g>
		<path fill="#EA5E86" d="M1081.692,81.246c0,2.871-1.033,5.133-3.1,6.787c-2.066,1.653-4.941,2.479-8.624,2.479
			c-3.394,0-6.396-0.638-9.006-1.914v-6.265c2.146,0.957,3.963,1.631,5.449,2.023s2.846,0.587,4.078,0.587
			c1.479,0,2.613-0.283,3.404-0.848c0.79-0.566,1.186-1.407,1.186-2.523c0-0.623-0.174-1.178-0.522-1.664
			c-0.348-0.485-0.858-0.953-1.533-1.403c-0.674-0.449-2.048-1.167-4.122-2.153c-1.943-0.914-3.4-1.791-4.372-2.632
			c-0.972-0.841-1.747-1.82-2.327-2.937c-0.58-1.116-0.87-2.421-0.87-3.915c0-2.813,0.953-5.025,2.86-6.634
			c1.906-1.61,4.542-2.415,7.906-2.415c1.653,0,3.23,0.196,4.731,0.587s3.07,0.943,4.709,1.653l-2.175,5.242
			c-1.697-0.696-3.1-1.182-4.209-1.457s-2.201-0.414-3.273-0.414c-1.276,0-2.255,0.297-2.937,0.892s-1.022,1.37-1.022,2.327
			c0,0.595,0.138,1.113,0.413,1.555c0.275,0.442,0.714,0.87,1.316,1.283c0.602,0.414,2.026,1.157,4.273,2.23
			c2.973,1.421,5.011,2.846,6.112,4.274S1081.692,79.172,1081.692,81.246z"/>
		<path fill="#EA5E86" d="M1104.179,90.077h-6.743V63.889h-8.635v-5.612h24.014v5.612h-8.636V90.077z"/>
		<path fill="#EA5E86" d="M1134.062,90.077h-14.465v-3.828l3.871-1.784V63.889l-3.871-1.784v-3.828h14.465v3.828l-3.872,1.784
			v20.577l3.872,1.784V90.077z"/>
		<path fill="#EA5E86" d="M1157.461,63.432c-2.538,0-4.503,0.954-5.895,2.86c-1.393,1.907-2.089,4.564-2.089,7.972
			c0,7.091,2.661,10.636,7.983,10.636c2.232,0,4.938-0.558,8.113-1.675v5.655c-2.61,1.087-5.525,1.631-8.744,1.631
			c-4.626,0-8.164-1.403-10.615-4.209c-2.45-2.806-3.676-6.833-3.676-12.083c0-3.306,0.602-6.202,1.806-8.689
			c1.203-2.487,2.933-4.394,5.188-5.721c2.255-1.327,4.897-1.99,7.929-1.99c3.089,0,6.191,0.747,9.31,2.24l-2.176,5.481
			c-1.188-0.565-2.385-1.058-3.589-1.479C1159.803,63.642,1158.621,63.432,1157.461,63.432z"/>
		<path fill="#EA5E86" d="M1202.373,90.077h-7.656l-8.331-13.399l-2.85,2.045v11.354h-6.742v-31.8h6.742v14.551l2.654-3.741
			l8.613-10.81h7.482l-11.093,14.073L1202.373,90.077z"/>
		<path fill="#EA5E86" d="M1075.188,143.533h-6.743v-26.188h-8.635v-5.612h24.014v5.612h-8.636V143.533z"/>
		<path fill="#EA5E86" d="M1121.602,127.589c0,5.264-1.305,9.31-3.915,12.137s-6.352,4.242-11.224,4.242s-8.613-1.414-11.224-4.242
			s-3.915-6.888-3.915-12.181c0-5.292,1.309-9.334,3.926-12.126c2.617-2.791,6.369-4.187,11.257-4.187
			c4.886,0,8.624,1.407,11.213,4.22C1120.308,118.266,1121.602,122.312,1121.602,127.589z M1098.394,127.589
			c0,3.553,0.674,6.229,2.022,8.026c1.349,1.798,3.364,2.697,6.047,2.697c5.38,0,8.069-3.575,8.069-10.724
			c0-7.163-2.675-10.745-8.025-10.745c-2.684,0-4.706,0.903-6.069,2.708C1099.074,121.358,1098.394,124.037,1098.394,127.589z"/>
		<path fill="#EA5E86" d="M1074.819,196.989h-14.465v-3.828l3.871-1.784v-20.577l-3.871-1.784v-3.828h14.465v3.828l-3.872,1.784
			v20.577l3.872,1.784V196.989z"/>
		<path fill="#EA5E86" d="M1096.979,196.989h-6.743v-26.188h-8.636v-5.612h24.014v5.612h-8.635V196.989z"/>
	</g>
	<polygon fill="#5F8A8E" points="1208.093,241.526 1208.093,210.188 1208.093,207.542 1210.922,207.538 1241.455,207.5 	"/>
</g>
<g>
	<path opacity="0.15" fill="#E53112" d="M1224.951,242.235l-162.886,15.803c-3.168,0.307-5.985-2.011-6.292-5.179l-18.954-195.362
		c-0.307-3.168,2.011-5.985,5.179-6.292l195.362-18.954c3.168-0.307,5.985,2.011,6.292,5.179l15.502,159.782L1224.951,242.235z"/>
	<path fill="#89CED9" d="M1217.325,234.828l-167.784,16.278c-3.168,0.307-5.985-2.011-6.292-5.179l-18.954-195.362
		c-0.307-3.168,2.011-5.985,5.179-6.292l195.362-18.954c3.168-0.307,5.985,2.011,6.292,5.179l16.225,167.231L1217.325,234.828z"/>
	<g>
		<path fill="#EA5E86" d="M1076.145,87.492c0.277,2.858-0.533,5.209-2.43,7.054c-1.897,1.845-4.679,2.945-8.344,3.301
			c-3.378,0.328-6.427-0.018-9.149-1.035l-0.605-6.235c2.229,0.745,4.102,1.241,5.619,1.487c1.517,0.246,2.889,0.31,4.116,0.191
			c1.473-0.143,2.574-0.534,3.307-1.173c0.732-0.64,1.044-1.515,0.936-2.626c-0.06-0.62-0.287-1.155-0.681-1.606
			c-0.393-0.45-0.946-0.866-1.661-1.248c-0.714-0.382-2.151-0.964-4.311-1.745c-2.022-0.722-3.557-1.454-4.606-2.197
			c-1.048-0.743-1.915-1.643-2.6-2.698c-0.685-1.055-1.1-2.326-1.244-3.813c-0.272-2.8,0.463-5.093,2.206-6.879
			c1.742-1.786,4.288-2.842,7.636-3.167c1.646-0.16,3.234-0.117,4.766,0.128c1.532,0.245,3.147,0.642,4.847,1.19l-1.658,5.428
			c-1.756-0.529-3.199-0.877-4.33-1.044c-1.131-0.167-2.231-0.199-3.298-0.096c-1.27,0.123-2.216,0.514-2.837,1.171
			c-0.621,0.658-0.885,1.462-0.793,2.415c0.057,0.592,0.245,1.095,0.561,1.508c0.317,0.414,0.795,0.797,1.434,1.15
			c0.639,0.354,2.129,0.956,4.469,1.807c3.096,1.127,5.262,2.349,6.496,3.664C1075.227,83.739,1075.945,85.428,1076.145,87.492z"/>
		<path fill="#EA5E86" d="M1099.379,94.111l-6.712,0.651l-2.529-26.066l-8.594,0.834l-0.542-5.586l23.901-2.319l0.542,5.586
			l-8.595,0.834L1099.379,94.111z"/>
		<path fill="#EA5E86" d="M1129.122,91.225l-14.397,1.397l-0.37-3.81l3.681-2.149l-1.987-20.48l-4.025-1.402l-0.37-3.81
			l14.397-1.397l0.37,3.81l-3.682,2.149l1.987,20.48l4.026,1.401L1129.122,91.225z"/>
		<path fill="#EA5E86" d="M1149.839,62.444c-2.526,0.245-4.39,1.384-5.591,3.416c-1.202,2.033-1.638,4.745-1.309,8.137
			c0.685,7.058,3.676,10.33,8.973,9.816c2.222-0.216,4.861-1.032,7.914-2.45l0.546,5.629c-2.493,1.334-5.342,2.157-8.546,2.468
			c-4.604,0.447-8.261-0.608-10.972-3.164c-2.71-2.556-4.318-6.447-4.825-11.672c-0.319-3.291,0-6.231,0.958-8.823
			c0.957-2.591,2.495-4.656,4.611-6.195c2.116-1.538,4.682-2.454,7.699-2.747c3.074-0.298,6.235,0.146,9.482,1.331l-1.636,5.666
			c-1.238-0.448-2.476-0.823-3.715-1.126C1152.191,62.428,1150.994,62.332,1149.839,62.444z"/>
		<path fill="#EA5E86" d="M1197.115,84.628l-7.62,0.739l-9.586-12.532l-2.639,2.311l1.096,11.301l-6.711,0.651l-3.071-31.652
			l6.711-0.651l1.405,14.483l2.281-3.98l7.529-11.591l7.448-0.723l-9.682,15.078L1197.115,84.628z"/>
		<path fill="#EA5E86" d="M1075.687,150.116l-6.712,0.651l-2.529-26.066l-8.594,0.834l-0.542-5.586l23.901-2.319l0.542,5.586
			l-8.595,0.834L1075.687,150.116z"/>
		<path fill="#EA5E86" d="M1120.343,129.765c0.508,5.24-0.4,9.392-2.725,12.459c-2.325,3.066-5.912,4.835-10.762,5.306
			c-4.849,0.47-8.709-0.576-11.581-3.138s-4.562-6.477-5.073-11.746c-0.511-5.268,0.401-9.417,2.736-12.449
			c2.335-3.031,5.935-4.782,10.8-5.254c4.863-0.472,8.72,0.567,11.568,3.117C1118.155,120.61,1119.833,124.512,1120.343,129.765z
			 M1097.244,132.006c0.343,3.537,1.272,6.134,2.788,7.794c1.516,1.66,3.609,2.36,6.279,2.101c5.355-0.52,7.686-4.337,6.996-11.453
			c-0.692-7.13-3.7-10.437-9.026-9.92c-2.671,0.259-4.597,1.353-5.78,3.281C1097.319,125.738,1096.901,128.47,1097.244,132.006z"/>
		<path fill="#EA5E86" d="M1080.481,203.358l-14.397,1.397l-0.37-3.81l3.681-2.149l-1.987-20.48l-4.025-1.402l-0.37-3.81
			l14.397-1.397l0.37,3.81l-3.682,2.149l1.987,20.48l4.026,1.401L1080.481,203.358z"/>
		<path fill="#EA5E86" d="M1102.538,201.218l-6.712,0.651l-2.529-26.066l-8.595,0.834l-0.542-5.586l23.901-2.319l0.542,5.586
			l-8.594,0.834L1102.538,201.218z"/>
	</g>
	<polygon fill="#5F8A8E" points="1217.433,234.817 1214.407,203.626 1214.151,200.992 1216.967,200.715 1247.353,197.729 	"/>
</g>
<g>
	<path opacity="0.15" fill="#E53112" d="M1235.036,233.144l-160.335,32.78c-3.118,0.637-6.162-1.373-6.8-4.491L1028.586,69.13
		c-0.638-3.118,1.373-6.162,4.491-6.8l192.302-39.315c3.118-0.637,6.162,1.373,6.8,4.491l32.155,157.279L1235.036,233.144z"/>
	<path fill="#89CED9" d="M1226.677,226.576l-165.155,33.765c-3.118,0.637-6.162-1.373-6.8-4.491l-39.315-192.302
		c-0.638-3.118,1.373-6.162,4.491-6.8l192.302-39.315c3.118-0.637,6.162,1.373,6.8,4.491l33.654,164.611L1226.677,226.576z"/>
	<g>
		<path fill="#EA5E86" d="M1070.839,94.841c0.575,2.813,0.016,5.236-1.677,7.27c-1.693,2.033-4.345,3.419-7.953,4.157
			c-3.325,0.68-6.394,0.656-9.207-0.071l-1.255-6.138c2.295,0.508,4.209,0.805,5.744,0.89c1.535,0.086,2.906,0.006,4.113-0.241
			c1.45-0.296,2.504-0.8,3.165-1.513c0.661-0.713,0.88-1.616,0.656-2.71c-0.125-0.61-0.406-1.119-0.845-1.526
			c-0.438-0.406-1.032-0.762-1.783-1.067c-0.75-0.305-2.24-0.733-4.47-1.284c-2.087-0.506-3.69-1.073-4.811-1.703
			c-1.12-0.629-2.076-1.433-2.868-2.411c-0.792-0.977-1.338-2.198-1.637-3.661c-0.563-2.756-0.073-5.114,1.474-7.073
			c1.545-1.959,3.966-3.275,7.262-3.949c1.62-0.331,3.204-0.455,4.753-0.372c1.549,0.083,3.197,0.309,4.945,0.676l-1.081,5.572
			c-1.802-0.342-3.273-0.537-4.416-0.584c-1.142-0.048-2.239,0.036-3.29,0.25c-1.25,0.256-2.15,0.743-2.698,1.462
			s-0.727,1.547-0.536,2.485c0.119,0.583,0.358,1.063,0.716,1.441c0.358,0.378,0.874,0.709,1.547,0.994
			c0.672,0.285,2.217,0.727,4.634,1.329c3.197,0.797,5.479,1.784,6.844,2.963S1070.424,92.809,1070.839,94.841z"/>
		<path fill="#EA5E86" d="M1094.639,98.989l-6.606,1.351l-5.246-25.658l-8.46,1.73l-1.124-5.498l23.527-4.81l1.124,5.498
			l-8.461,1.73L1094.639,98.989z"/>
		<path fill="#EA5E86" d="M1123.916,93.004l-14.172,2.897l-0.767-3.751l3.435-2.523l-4.122-20.16l-4.15-0.972l-0.767-3.751
			l14.172-2.897l0.767,3.751l-3.436,2.523l4.122,20.16l4.151,0.972L1123.916,93.004z"/>
		<path fill="#EA5E86" d="M1141.504,62.211c-2.487,0.508-4.221,1.836-5.202,3.983c-0.982,2.148-1.132,4.89-0.45,8.229
			c1.42,6.947,4.738,9.888,9.952,8.822c2.187-0.447,4.726-1.536,7.613-3.266l1.133,5.541c-2.34,1.588-5.087,2.705-8.24,3.35
			c-4.532,0.927-8.28,0.261-11.243-1.997c-2.963-2.258-4.97-5.959-6.021-11.102c-0.662-3.239-0.653-6.197,0.028-8.875
			c0.681-2.677,1.993-4.892,3.937-6.644c1.943-1.751,4.4-2.931,7.369-3.538c3.026-0.619,6.216-0.508,9.57,0.33l-1.034,5.806
			c-1.278-0.316-2.548-0.559-3.812-0.73C1143.84,61.948,1142.641,61.979,1141.504,62.211z"/>
		<path fill="#EA5E86" d="M1190.843,79.321l-7.501,1.534l-10.846-11.459l-2.382,2.574l2.274,11.124l-6.606,1.35l-6.37-31.156
			l6.605-1.35l2.915,14.256l1.851-4.197l6.273-12.316l7.331-1.499l-8.049,16.009L1190.843,79.321z"/>
		<path fill="#EA5E86" d="M1076.943,157.169l-6.606,1.351l-5.246-25.658l-8.46,1.73l-1.124-5.498l23.527-4.81l1.124,5.498
			l-8.461,1.73L1076.943,157.169z"/>
		<path fill="#EA5E86" d="M1119.222,132.251c1.054,5.157,0.586,9.382-1.405,12.675c-1.991,3.293-5.373,5.428-10.146,6.404
			s-8.722,0.34-11.846-1.908c-3.124-2.247-5.215-5.964-6.276-11.15c-1.06-5.185-0.588-9.407,1.417-12.667
			c2.005-3.259,5.401-5.378,10.19-6.357c4.787-0.979,8.731-0.349,11.831,1.888C1116.087,123.376,1118.165,127.08,1119.222,132.251z
			 M1096.485,136.9c0.712,3.481,1.908,5.967,3.589,7.459c1.682,1.492,3.836,1.969,6.465,1.431c5.271-1.078,7.19-5.119,5.758-12.123
			c-1.435-7.018-4.773-9.992-10.015-8.92c-2.629,0.538-4.43,1.827-5.404,3.869C1095.903,130.658,1095.773,133.419,1096.485,136.9z"
			/>
		<path fill="#EA5E86" d="M1087.289,209.615l-14.172,2.897l-0.767-3.751l3.435-2.523l-4.122-20.16l-4.15-0.972l-0.767-3.751
			l14.172-2.897l0.767,3.751l-3.436,2.523l4.122,20.16l4.151,0.972L1087.289,209.615z"/>
		<path fill="#EA5E86" d="M1109,205.177l-6.606,1.351l-5.246-25.658l-8.461,1.73l-1.124-5.498l23.527-4.81l1.124,5.498l-8.46,1.73
			L1109,205.177z"/>
	</g>
	<polygon fill="#5F8A8E" points="1226.783,226.555 1220.506,195.852 1219.976,193.259 1222.747,192.689 1252.653,186.536 	"/>
</g>
</svg>
